<?xml version="1.0" encoding="UTF-8"?>
<svg xmlns="http://www.w3.org/2000/svg" xmlns:xlink="http://www.w3.org/1999/xlink" width="17px" height="17px" viewBox="0 0 17 17" version="1.1">
<g id="surface1">
<path style=" stroke:none;fill-rule:nonzero;fill:rgb(0%,0%,0%);fill-opacity:1;" d="M 7.613281 2.242188 C 5.679688 2.355469 5.332031 2.472656 4.945312 3.324219 C 4.636719 4.019531 4.210938 4.25 3.285156 4.25 C 1.351562 4.25 1.160156 4.714844 1.160156 9.738281 C 1.160156 14.257812 1.160156 14.335938 2.125 14.683594 C 3.167969 15.066406 14.71875 14.953125 15.378906 14.527344 C 16.035156 14.140625 15.996094 5.332031 15.378906 4.714844 C 15.105469 4.441406 14.371094 4.25 13.714844 4.25 C 12.789062 4.25 12.363281 4.019531 12.054688 3.324219 C 11.589844 2.28125 10.742188 2.085938 7.613281 2.242188 Z M 10.703125 5.988281 C 11.824219 6.761719 12.480469 8.886719 12.015625 10.121094 C 10.816406 13.328125 6.644531 13.5625 5.214844 10.546875 C 4.019531 8.035156 5.71875 5.410156 8.5 5.410156 C 9.273438 5.410156 10.238281 5.679688 10.703125 5.988281 Z M 4.636719 6.375 C 4.636719 6.722656 4.289062 6.953125 3.671875 6.953125 C 3.050781 6.953125 2.703125 6.722656 2.703125 6.375 C 2.703125 6.027344 3.050781 5.796875 3.671875 5.796875 C 4.289062 5.796875 4.636719 6.027344 4.636719 6.375 Z M 4.636719 6.375 "/>
</g>
</svg>
