<?xml version="1.0" encoding="UTF-8"?>
<svg xmlns="http://www.w3.org/2000/svg" xmlns:xlink="http://www.w3.org/1999/xlink" width="25px" height="25px" viewBox="0 0 25 25" version="1.1">
<defs>
<radialGradient id="radial0" gradientUnits="userSpaceOnUse" cx="-578.95" cy="-837.6" fx="-578.95" fy="-837.6" r="197.06" gradientTransform="matrix(-0.292969,0.000000000000000036,-0.000000000000000036,-0.292969,-170.117188,-220.898437)">
<stop offset="0" style="stop-color:rgb(97.647059%,92.941176%,19.607843%);stop-opacity:1;"/>
<stop offset="0.36" style="stop-color:rgb(93.333333%,16.470588%,48.235294%);stop-opacity:1;"/>
<stop offset="0.44" style="stop-color:rgb(82.352941%,16.470588%,54.117647%);stop-opacity:1;"/>
<stop offset="0.6" style="stop-color:rgb(54.509804%,16.470588%,69.803922%);stop-opacity:1;"/>
<stop offset="0.83" style="stop-color:rgb(10.588235%,16.470588%,94.117647%);stop-opacity:1;"/>
<stop offset="0.88" style="stop-color:rgb(0%,16.470588%,100%);stop-opacity:1;"/>
</radialGradient>
</defs>
<g id="surface1">
<path style=" stroke:none;fill-rule:nonzero;fill:url(#radial0);" d="M 20.625 25 L 4.375 25 C 1.957031 25 0 23.042969 0 20.625 L 0 4.375 C 0 1.957031 1.957031 0 4.375 0 L 20.625 0 C 23.042969 0 25 1.957031 25 4.375 L 25 20.625 C 25 23.042969 23.042969 25 20.625 25 Z M 20.625 25 "/>
<path style=" stroke:none;fill-rule:nonzero;fill:rgb(100%,100%,100%);fill-opacity:1;" d="M 17.1875 21.875 L 7.8125 21.875 C 5.222656 21.875 3.125 19.777344 3.125 17.1875 L 3.125 7.8125 C 3.125 5.222656 5.222656 3.125 7.8125 3.125 L 17.1875 3.125 C 19.777344 3.125 21.875 5.222656 21.875 7.8125 L 21.875 17.1875 C 21.875 19.777344 19.777344 21.875 17.1875 21.875 Z M 7.8125 5 C 6.261719 5.003906 5.003906 6.261719 5 7.8125 L 5 17.1875 C 5.003906 18.738281 6.261719 19.996094 7.8125 20 L 17.1875 20 C 18.738281 19.996094 19.996094 18.738281 20 17.1875 L 20 7.8125 C 19.996094 6.261719 18.738281 5.003906 17.1875 5 Z M 7.8125 5 "/>
<path style=" stroke:none;fill-rule:nonzero;fill:rgb(100%,100%,100%);fill-opacity:1;" d="M 12.5 17.8125 C 9.566406 17.8125 7.1875 15.433594 7.1875 12.5 C 7.1875 9.566406 9.566406 7.1875 12.5 7.1875 C 15.433594 7.1875 17.8125 9.566406 17.8125 12.5 C 17.808594 15.433594 15.433594 17.808594 12.5 17.8125 Z M 12.5 9.0625 C 10.601562 9.0625 9.0625 10.601562 9.0625 12.5 C 9.0625 14.398438 10.601562 15.9375 12.5 15.9375 C 14.398438 15.9375 15.9375 14.398438 15.9375 12.5 C 15.933594 10.601562 14.398438 9.066406 12.5 9.0625 Z M 12.5 9.0625 "/>
<path style=" stroke:none;fill-rule:nonzero;fill:rgb(100%,100%,100%);fill-opacity:1;" d="M 18.75 7.5 C 18.75 8.019531 18.332031 8.4375 17.8125 8.4375 C 17.292969 8.4375 16.875 8.019531 16.875 7.5 C 16.875 6.980469 17.292969 6.5625 17.8125 6.5625 C 18.332031 6.5625 18.75 6.980469 18.75 7.5 Z M 18.75 7.5 "/>
</g>
</svg>
