<?xml version="1.0" encoding="UTF-8"?>
<svg xmlns="http://www.w3.org/2000/svg" xmlns:xlink="http://www.w3.org/1999/xlink" width="25px" height="25px" viewBox="0 0 25 25" version="1.1">
<g id="surface1">
<path style=" stroke:none;fill-rule:evenodd;fill:rgb(12.54902%,62.745098%,88.235294%);fill-opacity:1;" d="M 2.675781 0 L 22.261719 0 C 23.738281 0 24.933594 1.199219 24.933594 2.675781 L 24.933594 22.261719 C 24.933594 23.738281 23.738281 24.933594 22.261719 24.933594 L 2.675781 24.933594 C 1.199219 24.933594 0 23.738281 0 22.261719 L 0 2.675781 C 0 1.199219 1.199219 0 2.675781 0 Z M 2.675781 0 "/>
<path style=" stroke:none;fill-rule:evenodd;fill:rgb(80%,84.705882%,90.196078%);fill-opacity:1;" d="M 16.433594 9.554688 C 16.527344 9.363281 16.71875 9.363281 16.71875 9.074219 C 16.335938 9.074219 16.050781 9.363281 15.859375 9.457031 L 9.457031 13.46875 L 10.699219 17.386719 C 10.890625 17.195312 10.890625 17.003906 10.890625 16.625 C 10.890625 16.433594 10.988281 16.050781 10.988281 15.859375 L 10.988281 15.191406 C 11.082031 15.09375 11.082031 15 11.082031 14.808594 C 11.082031 14.710938 11.082031 14.617188 11.082031 14.523438 C 11.179688 14.332031 11.273438 14.425781 11.367188 14.234375 C 12.800781 12.707031 14.808594 10.988281 16.433594 9.554688 Z M 16.433594 9.554688 "/>
<path style=" stroke:none;fill-rule:evenodd;fill:rgb(99.607843%,99.607843%,99.607843%);fill-opacity:1;" d="M 6.304688 12.324219 L 9.457031 13.46875 L 16.144531 9.265625 C 16.335938 9.171875 16.527344 9.074219 16.71875 9.074219 C 16.71875 9.363281 16.335938 9.648438 16.144531 9.839844 C 14.710938 11.082031 12.324219 12.898438 11.082031 14.332031 L 12.230469 15.191406 C 12.417969 15.191406 12.898438 15.667969 12.992188 15.761719 C 13.183594 15.859375 13.949219 16.433594 14.042969 16.625 C 14.234375 16.625 14.234375 16.71875 14.332031 16.8125 L 15.285156 17.484375 C 15.667969 17.769531 16.050781 18.246094 16.71875 17.769531 L 18.820312 8.214844 C 19.105469 6.59375 18.34375 6.878906 17.292969 7.261719 L 6.59375 11.558594 C 6.210938 11.75 5.828125 12.230469 6.304688 12.324219 Z M 6.304688 12.324219 "/>
<path style=" stroke:none;fill-rule:evenodd;fill:rgb(67.058824%,74.117647%,83.529412%);fill-opacity:1;" d="M 10.699219 17.386719 L 10.796875 17.484375 C 10.988281 17.484375 11.179688 17.386719 11.367188 17.195312 L 12.992188 15.761719 C 12.898438 15.667969 12.417969 15.191406 12.230469 15.191406 L 11.082031 14.332031 Z M 10.699219 17.386719 "/>
<path style=" stroke:none;fill-rule:evenodd;fill:rgb(10.196078%,50.980392%,71.764706%);fill-opacity:1;" d="M 24.933594 13.28125 L 18.726562 7.070312 C 18.917969 7.261719 18.917969 7.546875 18.820312 8.214844 L 16.71875 17.769531 C 16.050781 18.246094 15.667969 17.769531 15.285156 17.484375 L 14.332031 16.8125 C 14.234375 16.71875 14.234375 16.625 14.042969 16.625 C 13.949219 16.433594 13.183594 15.859375 12.992188 15.761719 L 11.367188 17.195312 C 11.179688 17.292969 10.988281 17.386719 10.796875 17.484375 L 18.34375 24.933594 L 22.261719 24.933594 L 24.933594 22.261719 Z M 24.933594 13.28125 "/>
<path style=" stroke:none;fill-rule:evenodd;fill:rgb(10.196078%,50.980392%,71.764706%);fill-opacity:1;" d="M 6.304688 12.324219 L 10.414062 16.527344 L 9.457031 13.46875 Z M 6.304688 12.324219 "/>
</g>
</svg>
