<?xml version="1.0" encoding="UTF-8"?>
<svg xmlns="http://www.w3.org/2000/svg" xmlns:xlink="http://www.w3.org/1999/xlink" width="22px" height="22px" viewBox="0 0 22 22" version="1.1">
<g id="surface1">
<path style=" stroke:none;fill-rule:nonzero;fill:rgb(0%,0%,0%);fill-opacity:1;" d="M 9.851562 2.898438 C 7.351562 3.050781 6.898438 3.199219 6.398438 4.300781 C 6 5.199219 5.449219 5.5 4.25 5.5 C 1.75 5.5 1.5 6.101562 1.5 12.601562 C 1.5 18.449219 1.5 18.550781 2.75 19 C 4.101562 19.5 19.050781 19.351562 19.898438 18.800781 C 20.75 18.300781 20.699219 6.898438 19.898438 6.101562 C 19.550781 5.75 18.601562 5.5 17.75 5.5 C 16.550781 5.5 16 5.199219 15.601562 4.300781 C 15 2.949219 13.898438 2.699219 9.851562 2.898438 Z M 13.851562 7.75 C 15.300781 8.75 16.148438 11.5 15.550781 13.101562 C 14 17.25 8.601562 17.550781 6.75 13.648438 C 5.199219 10.398438 7.398438 7 11 7 C 12 7 13.25 7.351562 13.851562 7.75 Z M 6 8.25 C 6 8.699219 5.550781 9 4.75 9 C 3.949219 9 3.5 8.699219 3.5 8.25 C 3.5 7.800781 3.949219 7.5 4.75 7.5 C 5.550781 7.5 6 7.800781 6 8.25 Z M 6 8.25 "/>
</g>
</svg>
