<?xml version="1.0" encoding="UTF-8"?>
<svg xmlns="http://www.w3.org/2000/svg" xmlns:xlink="http://www.w3.org/1999/xlink" width="17px" height="17px" viewBox="0 0 17 17" version="1.1">
<g id="surface1">
<path style=" stroke:none;fill-rule:nonzero;fill:rgb(0%,0%,0%);fill-opacity:1;" d="M 0.554688 0.046875 C 0.488281 0.0742188 0.410156 0.109375 0.386719 0.128906 C 0.300781 0.203125 0.234375 0.390625 0.234375 0.5625 C 0.234375 0.699219 1.628906 7.054688 1.667969 7.089844 C 1.675781 7.097656 8.449219 8.273438 9.273438 8.410156 C 9.507812 8.449219 9.695312 8.488281 9.695312 8.5 C 9.695312 8.511719 9.507812 8.550781 9.273438 8.589844 C 8.445312 8.726562 1.675781 9.902344 1.667969 9.910156 C 1.628906 9.945312 0.234375 16.300781 0.234375 16.4375 C 0.234375 16.832031 0.523438 17.066406 0.894531 16.96875 C 1.0625 16.921875 16.492188 9.015625 16.59375 8.917969 C 16.71875 8.808594 16.765625 8.6875 16.765625 8.5 C 16.765625 8.3125 16.71875 8.191406 16.59375 8.082031 C 16.5 7.992188 1.074219 0.078125 0.902344 0.03125 C 0.746094 -0.0117188 0.710938 -0.0078125 0.554688 0.046875 Z M 0.554688 0.046875 "/>
</g>
</svg>
