<?xml version="1.0" encoding="UTF-8"?>
<svg xmlns="http://www.w3.org/2000/svg" xmlns:xlink="http://www.w3.org/1999/xlink" width="20px" height="20px" viewBox="0 0 20 20" version="1.1">
<g id="surface1">
<path style=" stroke:none;fill-rule:nonzero;fill:rgb(25.882353%,52.54902%,78.823529%);fill-opacity:1;" d="M 13.320312 15.714844 L 3.796875 10 L 13.320312 4.285156 L 14.179688 5.714844 L 7.035156 10 L 14.179688 14.285156 Z M 13.320312 15.714844 "/>
<path style=" stroke:none;fill-rule:nonzero;fill:rgb(29.803922%,60.392157%,90.980392%);fill-opacity:1;" d="M 16.667969 5.417969 C 16.667969 7.027344 15.359375 8.332031 13.75 8.332031 C 12.140625 8.332031 10.832031 7.027344 10.832031 5.417969 C 10.832031 3.804688 12.140625 2.5 13.75 2.5 C 15.359375 2.5 16.667969 3.804688 16.667969 5.417969 Z M 16.667969 5.417969 "/>
<path style=" stroke:none;fill-rule:nonzero;fill:rgb(29.803922%,60.392157%,90.980392%);fill-opacity:1;" d="M 8.332031 10 C 8.332031 11.609375 7.027344 12.917969 5.417969 12.917969 C 3.804688 12.917969 2.5 11.609375 2.5 10 C 2.5 8.390625 3.804688 7.082031 5.417969 7.082031 C 7.027344 7.082031 8.332031 8.390625 8.332031 10 Z M 8.332031 10 "/>
<path style=" stroke:none;fill-rule:nonzero;fill:rgb(29.803922%,60.392157%,90.980392%);fill-opacity:1;" d="M 16.667969 14.582031 C 16.667969 16.195312 15.359375 17.5 13.75 17.5 C 12.140625 17.5 10.832031 16.195312 10.832031 14.582031 C 10.832031 12.972656 12.140625 11.667969 13.75 11.667969 C 15.359375 11.667969 16.667969 12.972656 16.667969 14.582031 Z M 16.667969 14.582031 "/>
</g>
</svg>
