<?xml version="1.0" encoding="UTF-8"?>
<svg xmlns="http://www.w3.org/2000/svg" xmlns:xlink="http://www.w3.org/1999/xlink" width="25px" height="25px" viewBox="0 0 25 25" version="1.1">
<g id="surface1">
<path style=" stroke:none;fill-rule:nonzero;fill:rgb(26.666667%,53.72549%,78.431373%);fill-opacity:1;" d="M 4.375 0 L 20.625 0 C 23.042969 0 25 1.957031 25 4.375 L 25 20.625 C 25 23.042969 23.042969 25 20.625 25 L 4.375 25 C 1.957031 25 0 23.042969 0 20.625 L 0 4.375 C 0 1.957031 1.957031 0 4.375 0 Z M 4.375 0 "/>
<path style=" stroke:none;fill-rule:nonzero;fill:rgb(100%,100%,100%);fill-opacity:1;" d="M 3.757812 7.722656 L 6.757812 7.722656 C 6.886719 7.722656 7 7.800781 7.046875 7.921875 C 7.378906 8.777344 8.757812 12.125 10.019531 12.398438 C 10.957031 12.398438 10.625 7.945312 9.433594 7.945312 C 9.121094 7.945312 9.988281 7.390625 10.046875 7.367188 C 11.152344 7.0625 12.324219 7.0625 13.429688 7.367188 C 14.027344 7.617188 14.128906 8.316406 14.144531 8.910156 C 14.160156 9.503906 13.480469 12.035156 14.375 12.308594 C 15.546875 12.667969 17.054688 8.992188 17.40625 8.089844 C 17.453125 7.972656 17.566406 7.894531 17.695312 7.894531 L 21.035156 7.894531 C 21.140625 7.894531 21.238281 7.945312 21.296875 8.035156 C 21.355469 8.121094 21.363281 8.230469 21.324219 8.328125 C 20.636719 9.898438 19.8125 11.402344 18.859375 12.828125 C 18.691406 13.070312 18.71875 13.398438 18.921875 13.609375 C 19.921875 14.679688 22.65625 17.710938 21.09375 17.710938 L 17.722656 17.710938 C 17.546875 17.710938 17.378906 17.636719 17.261719 17.503906 C 16.738281 16.925781 15.214844 15.316406 14.527344 15.445312 C 13.957031 15.550781 13.902344 16.519531 13.929688 17.152344 C 13.949219 17.492188 13.691406 17.785156 13.351562 17.808594 C 12.753906 17.84375 11.9375 17.859375 11.863281 17.855469 C 9.480469 17.703125 8.070312 16.113281 6.722656 14.339844 C 5.3125 12.460938 4.210938 10.367188 3.460938 8.136719 C 3.429688 8.042969 3.445312 7.9375 3.503906 7.855469 C 3.5625 7.773438 3.65625 7.722656 3.757812 7.722656 Z M 3.757812 7.722656 "/>
</g>
</svg>
